<svg width="56" height="55" viewBox="0 0 56 55" fill="none" xmlns="http://www.w3.org/2000/svg">
<path fill-rule="evenodd" clip-rule="evenodd" d="M43.5 4H12.5C7.80006 4 4 7.80006 4 12.5V42.3C4 46.9999 7.80006 50.8 12.5 50.8H43.5C48.1999 50.8 52 46.9999 52 42.3V12.5C52 7.80006 48.1999 4 43.5 4ZM15.8401 31.9999H23.2801L23.2799 31.9997V31.8997L24.9199 36.6997C24.9601 36.8397 25.1 36.9397 25.24 36.9197H29.42C29.6201 36.9197 29.6802 36.8197 29.6201 36.5997L22.3201 16.1997C22.3001 16.0996 22.2001 16.0397 22.0601 16.0397H16.8801C16.7801 16.0597 16.7002 16.1597 16.7202 16.2598C16.7202 16.6998 16.6803 17.1399 16.6002 17.5598L16.5975 17.568C16.5188 17.8039 16.4593 17.982 16.4001 18.1798L9.96006 36.6398C9.90016 36.8798 9.96006 36.9998 10.1801 36.9998H13.94C14.1199 37.0198 14.2801 36.8998 14.32 36.7199L15.8401 31.9999ZM17.0002 28.02H22.0801C21.9601 27.6001 21.8001 27.0999 21.62 26.58C21.4399 26.0401 21.26 25.46 21.0801 24.86C20.9801 24.55 20.8851 24.2451 20.7901 23.9401C20.6951 23.6351 20.6001 23.3301 20.5001 23.0201C20.3 22.4001 20.1201 21.8201 19.9602 21.2401C19.8903 20.9954 19.8243 20.7584 19.7603 20.529C19.6779 20.2333 19.5991 19.9504 19.5201 19.6801H19.4802C19.3001 20.54 19.0803 21.4 18.8001 22.2602C18.6868 22.6229 18.5734 22.9914 18.459 23.3634C18.2706 23.9759 18.0792 24.598 17.8801 25.2202C17.6201 26.24 17.3001 27.18 17.0002 28.02ZM35.06 30.1999H41.4001L41.3997 30.1996C41.6676 30.1996 41.9249 30.2208 42.1744 30.2414C42.409 30.2608 42.6367 30.2796 42.8596 30.2796C43.3197 30.2796 43.6996 30.2595 44.0197 30.2195C44.1321 30.2125 44.2321 30.2055 44.3198 30.1994C44.4819 30.188 44.6019 30.1796 44.6798 30.1796C44.8198 30.1796 44.9398 30.0596 44.9597 29.9196C44.9687 29.8393 44.9776 29.7391 44.9883 29.6189C45.0016 29.4698 45.0177 29.29 45.0398 29.0796C45.0598 28.6996 45.0797 28.2796 45.0797 27.7996C45.0797 26.9795 44.9597 26.1597 44.6998 25.3596C44.4398 24.5196 44.0197 23.7597 43.4998 23.0796C42.9397 22.3798 42.2197 21.8397 41.3997 21.4797C40.4197 21.0398 39.3597 20.8397 38.2996 20.8597C37.0196 20.8597 35.8996 21.0196 34.9596 21.4797C34.0196 21.9397 33.1997 22.5796 32.5396 23.3797C31.8598 24.1997 31.3598 25.1198 31.0397 26.1197C30.6997 27.1598 30.5398 28.2198 30.5398 29.2998C30.5398 30.2998 30.6799 31.2797 30.9599 32.2198C31.2398 33.1798 31.6998 34.0599 32.3398 34.8398C33.0198 35.6598 33.8798 36.3197 34.8598 36.7398C35.8998 37.1999 37.1797 37.4399 38.6998 37.4399C39.6598 37.4598 40.5998 37.3798 41.5398 37.1999C42.2399 37.0799 42.9 36.8798 43.5399 36.5999C43.5998 36.5599 43.6399 36.52 43.6799 36.4599L43.68 36.4593C43.6999 36.3794 43.7198 36.2998 43.7198 36.2199V33.1598C43.7198 32.9599 43.6599 32.9198 43.5599 32.9999C42.9998 33.2199 42.3998 33.3798 41.7798 33.4599C41.1 33.5999 40.3999 33.66 39.6999 33.6799C38.82 33.6999 37.94 33.52 37.14 33.18C36.54 32.94 36.04 32.5199 35.68 31.98C35.34 31.4399 35.1401 30.8199 35.06 30.1999ZM39.28 27.28H35.06L35.0598 27.2802C35.1199 26.7802 35.2599 26.3002 35.4999 25.8402C36.0198 24.8401 37.0599 24.26 38.1599 24.3201C39.3399 24.28 40.3999 25.0401 40.7599 26.1601C40.84 26.4001 40.8799 26.6401 40.8799 26.9V27.1001C40.74 27.1999 40.5798 27.2401 40.4199 27.26C40.1801 27.28 39.7999 27.28 39.28 27.28Z" fill="#20C8B4"/>
</svg>
