<svg width="56" height="56" viewBox="0 0 56 56" fill="none" xmlns="http://www.w3.org/2000/svg">
<path d="M39.7103 22.6562L43.6919 15.759C43.7986 15.5739 43.8278 15.354 43.773 15.1475C43.7182 14.9409 43.5839 14.7644 43.3994 14.6565C43.3082 14.603 43.2074 14.5682 43.1027 14.5539C42.998 14.5397 42.8915 14.5464 42.7894 14.5736C42.6873 14.6008 42.5916 14.648 42.5079 14.7124C42.4241 14.7769 42.354 14.8573 42.3016 14.949L38.2703 21.9353C35.1925 20.529 31.7284 19.7462 28.0028 19.7462C24.2772 19.7462 20.8131 20.53 17.7353 21.9353L13.7041 14.949C13.5967 14.764 13.4202 14.6293 13.2134 14.5744C13.0066 14.5196 12.7866 14.5491 12.6016 14.6565C12.4166 14.7639 12.2818 14.9404 12.227 15.1472C12.1721 15.354 12.2016 15.574 12.3091 15.759L16.2812 22.6562C9.41875 26.3725 4.76781 33.3222 4 41.4578H52C51.2322 33.3222 46.5812 26.3725 39.7103 22.6562ZM16.9797 34.7172C16.5818 34.7172 16.1928 34.5992 15.8619 34.3781C15.5311 34.157 15.2732 33.8428 15.121 33.4752C14.9687 33.1076 14.9288 32.703 15.0065 32.3128C15.0841 31.9225 15.2757 31.564 15.5571 31.2827C15.8384 31.0013 16.1969 30.8097 16.5872 30.7321C16.9775 30.6544 17.382 30.6943 17.7496 30.8466C18.1172 30.9988 18.4314 31.2567 18.6525 31.5875C18.8736 31.9184 18.9916 32.3074 18.9916 32.7053C18.9913 33.2388 18.7793 33.7504 18.402 34.1276C18.0248 34.5049 17.5132 34.7169 16.9797 34.7172ZM39.0109 34.7172C38.6134 34.7155 38.2252 34.5961 37.8955 34.374C37.5658 34.1519 37.3092 33.8371 37.1582 33.4694C37.0073 33.1016 36.9686 32.6973 37.0472 32.3076C37.1258 31.9179 37.318 31.5602 37.5997 31.2797C37.8814 30.9992 38.2399 30.8084 38.63 30.7315C39.02 30.6545 39.4241 30.6949 39.7912 30.8474C40.1584 30.9999 40.4721 31.2578 40.6928 31.5884C40.9135 31.9191 41.0312 32.3077 41.0312 32.7053C41.0311 32.9698 40.9789 33.2318 40.8774 33.4761C40.776 33.7205 40.6273 33.9424 40.4401 34.1293C40.2528 34.3161 40.0305 34.4642 39.7859 34.5651C39.5413 34.666 39.2793 34.7176 39.0147 34.7172H39.0109Z" fill="#20C8B4"/>
</svg>
