<svg width="56" height="56" viewBox="0 0 56 56" fill="none" xmlns="http://www.w3.org/2000/svg">
<path d="M4 22.8936H10.6383C11.1487 22.8936 11.1489 24.9361 11.1489 25.9574V33.1063H4.5617C3.9998 33.1063 4 31.0638 4 30.0425C4 29.0212 3.9998 26.9787 4.51064 26.9787H10.1277" stroke="#20C8B4" stroke-width="2" stroke-linecap="square"/>
<path d="M45.8724 29.0212H51.4894C52 29.0212 52 26.9787 52 25.9574C52 24.9361 52 22.8936 51.4894 22.8936H45.3617C44.8511 22.8936 44.8511 24.9361 44.8511 25.9574V30.0425C44.8511 31.0638 44.8511 33.1063 45.3617 33.1063H52" stroke="#20C8B4" stroke-width="2" stroke-linecap="square"/>
<path d="M24.4255 26.9788V33.1064" stroke="#20C8B4" stroke-width="2" stroke-linecap="square"/>
<path d="M24.4255 22.9038V22.9344" stroke="#20C8B4" stroke-width="2" stroke-linecap="square"/>
<path d="M21.3616 33.1063V25.9574C21.3616 24.9361 21.3616 22.8936 20.8509 22.8936H14.7233C14.2126 22.8936 14.2126 24.9361 14.2126 25.9574V33.1063" stroke="#20C8B4" stroke-width="2" stroke-linecap="square"/>
<path d="M41.7871 33.1063V25.9574C41.7871 24.9361 41.7871 22.8936 41.2765 22.8936H27.9999C27.4893 22.8936 27.4893 24.9361 27.4893 25.9574V33.1063" stroke="#20C8B4" stroke-width="2" stroke-linecap="square"/>
</svg>
