<svg width="56" height="56" viewBox="0 0 56 56" fill="none" xmlns="http://www.w3.org/2000/svg">
<path d="M49.2934 7.02146C49.2145 7.00912 49.135 7.00192 49.0552 6.9999H6.96149C6.15618 6.98865 5.51118 7.6449 5.49993 8.47646C5.49631 8.56451 5.50355 8.65268 5.52149 8.73896L11.6434 47.2937C11.7199 47.7604 11.951 48.188 12.2996 48.5077C12.6445 48.8235 13.0948 48.999 13.5624 48.9999H42.9231C43.2746 49.0004 43.6144 48.8731 43.879 48.6416C44.1436 48.4101 44.315 48.0903 44.3612 47.7418L48.0062 24.5002H34.4865L32.7559 35.0002H23.2384L20.8262 21.1252H48.5368L50.4831 8.75021C50.6021 7.9299 50.0724 7.15271 49.2934 7.02146Z" fill="#20C8B4"/>
</svg>
