<svg width="56" height="56" viewBox="0 0 56 56" fill="none" xmlns="http://www.w3.org/2000/svg">
<path d="M21.7 27.9934C21.6996 29.2395 22.0688 30.4578 22.7608 31.494C23.4528 32.5303 24.4366 33.3381 25.5877 33.8152C26.7389 34.2923 28.0057 34.4174 29.2279 34.1745C30.4501 33.9316 31.5728 33.3317 32.4541 32.4507C33.3353 31.5698 33.9355 30.4472 34.1788 29.2251C34.422 28.0029 34.2973 26.7361 33.8206 25.5848C33.3438 24.4336 32.5363 23.4495 31.5002 22.7572C30.4642 22.0648 29.2461 21.6953 28 21.6953C26.3308 21.6998 24.7312 22.3647 23.5508 23.5448C22.3703 24.7249 21.7049 26.3243 21.7 27.9934Z" fill="#20C8B4"/>
<path d="M48.6953 24.4178V24.4225C48.5417 23.5067 48.3223 22.6031 48.0391 21.7188H48.0288C48.3164 22.6074 48.5379 23.5162 48.6916 24.4375C48.5375 23.5162 48.3159 22.6076 48.0288 21.7188H33.46C35.2459 23.3125 36.4 25.4847 36.4 28.0047C36.4041 29.4815 36.0051 30.9314 35.2459 32.1981L25.6562 48.8547C25.6567 48.8631 25.6567 48.8716 25.6562 48.88V48.9062V48.8819C26.4347 48.9649 27.2172 49.0043 28 49C28.6413 49 29.2759 48.9634 29.9031 48.9062C30.8427 48.8213 31.7755 48.6728 32.695 48.4619C42.0325 46.33 49 37.975 49 27.9944C49.0001 26.7957 48.8982 25.5992 48.6953 24.4178Z" fill="#20C8B4"/>
<path d="M28 36.3906C24.85 36.3906 22.225 34.7116 20.7541 32.1916L11.125 15.5359L11.1119 15.5134C9.0341 18.3265 7.69175 21.6139 7.20667 25.0772C6.72158 28.5406 7.10912 32.0703 8.3341 35.3459C9.55908 38.6215 11.5827 41.5394 14.2213 43.8346C16.86 46.1298 20.03 47.7297 23.4437 48.4891V48.4844L30.7272 35.8656C29.8563 36.2005 28.933 36.3783 28 36.3906Z" fill="#20C8B4"/>
<path d="M12.5585 13.8035L19.8101 26.2957C20.1865 24.3997 21.2083 22.6927 22.7015 21.4651C24.1946 20.2376 26.067 19.5653 28.0001 19.5626H47.2348C46.5736 18.1097 45.7636 16.7292 44.8179 15.4432L44.8291 15.4507C45.7712 16.7344 46.5774 18.1124 47.2348 19.5626H47.2507C46.5938 18.108 45.7876 16.7256 44.8451 15.4376C44.8335 15.4304 44.8225 15.4222 44.8122 15.4132C42.9646 12.9431 40.5953 10.9106 37.873 9.4601C35.1506 8.00963 32.1421 7.1769 29.0614 7.02116C25.9806 6.86542 22.9034 7.39049 20.0487 8.55902C17.1939 9.72755 14.6318 11.5108 12.5444 13.782L12.5576 13.8045L12.5585 13.8035Z" fill="#20C8B4"/>
</svg>
