<svg width="56" height="55" viewBox="0 0 56 55" fill="none" xmlns="http://www.w3.org/2000/svg">
<g clip-path="url(#clip0_291_3549)">
<path d="M5.72185 39.1774C5.22721 39.9831 4.667 40.9274 4.22482 41.675C4.12739 41.8417 4.06556 42.0272 4.03746 42.2183C4.01078 42.4102 4.02096 42.6054 4.06744 42.7935C4.1124 42.9828 4.19484 43.1589 4.30726 43.3163C4.41968 43.4737 4.56208 43.6086 4.72508 43.7135L14.6609 49.8384C14.8314 49.9452 15.0244 50.0164 15.2249 50.0482C15.4235 50.0801 15.6296 50.0726 15.8263 50.0239C16.0231 49.9751 16.2085 49.889 16.3715 49.769C16.5346 49.6491 16.6713 49.4974 16.7744 49.3231C17.1753 48.6561 17.6831 47.7924 18.2283 46.8705C22.1667 40.4121 26.1575 41.2028 33.2867 44.5922L43.1419 49.265C43.3264 49.3535 43.5269 49.404 43.7313 49.4133C43.9357 49.4226 44.1399 49.3907 44.3317 49.3194C44.5228 49.2482 44.6989 49.1395 44.8469 48.999C44.9968 48.8585 45.1149 48.6898 45.1973 48.5025L49.9282 37.8359C50.0088 37.656 50.0538 37.4631 50.0594 37.2663C50.0669 37.0715 50.035 36.8747 49.9676 36.6911C49.9001 36.5075 49.7989 36.337 49.6678 36.1909C49.5366 36.0447 49.3792 35.9267 49.2013 35.8386C47.1234 34.8606 42.9883 32.9364 39.2823 31.1227C25.8015 24.6193 14.4267 25.0484 5.72185 39.1774Z" fill="#20C8B4"/>
<path d="M50.271 14.9308C50.7712 14.1251 51.3315 13.1827 51.768 12.4351C51.8673 12.2646 51.9329 12.0753 51.961 11.8786C51.9891 11.6838 51.9779 11.4833 51.9291 11.2922C51.8794 11.1006 51.7928 10.9205 51.6743 10.7619C51.5561 10.6029 51.4077 10.4686 51.2378 10.3666L41.3169 4.24171C41.1445 4.13491 40.9534 4.06372 40.753 4.03187C40.5525 4.00001 40.3483 4.00938 40.1515 4.05622C39.9548 4.10494 39.7693 4.19112 39.6063 4.31104C39.4433 4.43095 39.3065 4.58271 39.2016 4.75696C38.81 5.42397 38.2929 6.28771 37.7477 7.20954C33.7943 13.6979 29.841 12.9072 22.7043 9.51785L12.8584 4.84315C12.6748 4.75509 12.4762 4.70262 12.2738 4.69138C12.0715 4.67827 11.8672 4.70824 11.6761 4.7757C11.485 4.84315 11.3089 4.94807 11.159 5.08484C11.0072 5.22162 10.8873 5.3865 10.8011 5.57011L6.07024 16.2667C5.90765 16.6295 5.8922 17.0412 6.02715 17.4152C6.0946 17.6007 6.19765 17.7712 6.3288 17.9173C6.45995 18.0635 6.61921 18.1834 6.79721 18.2696C8.88255 19.2495 13.0177 21.1718 16.7162 22.9874C30.1613 29.4888 41.5717 29.0617 50.271 14.9308Z" fill="#20C8B4"/>
</g>
<defs>
<clipPath id="clip0_291_3549">
<rect width="48" height="46.08" fill="white" transform="translate(4 4)"/>
</clipPath>
</defs>
</svg>
