<svg width="56" height="56" viewBox="0 0 56 56" fill="none" xmlns="http://www.w3.org/2000/svg">
<path d="M47.5 10.2362C47.4882 9.00281 46.9906 7.82374 46.1153 6.95469C45.2399 6.08564 44.0572 5.59665 42.8237 5.59375L13.1537 5.5C11.9215 5.50024 10.7397 5.98908 9.8673 6.85935C8.99492 7.72961 8.50323 8.91028 8.5 10.1425V40.75C8.5 43.3094 10.5887 45.25 13.1537 45.25H38.5L37.2812 41.125L47.5 50.5V10.2362ZM34.4359 34.9197C34.4359 34.9197 33.6184 33.9456 32.9359 33.1084C35.9116 32.2703 37.0469 30.4375 37.0469 30.4375C36.2296 30.9796 35.3537 31.4278 34.4359 31.7734C33.3762 32.2134 32.2729 32.54 31.1444 32.7475C29.1999 33.1047 27.206 33.097 25.2644 32.725C24.1223 32.5129 23.0044 32.1862 21.9278 31.75C21.3583 31.5319 20.8045 31.2747 20.2703 30.9803C20.2019 30.9353 20.1344 30.9128 20.0659 30.8669C20.02 30.8444 19.9975 30.8219 19.9722 30.8219C19.5634 30.595 19.3366 30.4366 19.3366 30.4366C19.3366 30.4366 20.4259 32.2262 23.3097 33.0859C22.6281 33.9466 21.7881 34.9431 21.7881 34.9431C16.7716 34.7847 14.8647 31.5241 14.8647 31.5241C14.8647 24.2997 18.1337 18.4347 18.1337 18.4347C21.4028 16.0113 24.49 16.0797 24.49 16.0797L24.7169 16.3516C20.6303 17.5066 18.7694 19.2953 18.7694 19.2953C18.7694 19.2953 19.2681 19.0234 20.1081 18.6606C22.5372 17.5966 24.4675 17.3247 25.2644 17.2347C25.3916 17.2083 25.5208 17.1929 25.6506 17.1887C27.1718 16.9914 28.7112 16.9763 30.2359 17.1437C32.6301 17.4188 34.9495 18.1491 37.0694 19.2953C37.0694 19.2953 35.2759 17.5938 31.4163 16.4406L31.7341 16.0787C31.7341 16.0787 34.8438 16.0103 38.0913 18.4375C38.0913 18.4375 41.3603 24.3025 41.3603 31.5269C41.3603 31.5006 39.4525 34.7612 34.4359 34.9197Z" fill="#20C8B4"/>
<path d="M23.8796 24.4375C22.5858 24.4375 21.564 25.5475 21.564 26.9284C21.564 28.3094 22.6083 29.4194 23.8796 29.4194C25.1733 29.4194 26.1952 28.3103 26.1952 26.9284C26.2187 25.5447 25.1733 24.4375 23.8796 24.4375ZM32.1652 24.4375C30.8715 24.4375 29.8496 25.5475 29.8496 26.9284C29.8496 28.3094 30.894 29.4194 32.1652 29.4194C33.4599 29.4194 34.4808 28.3103 34.4808 26.9284C34.4808 25.5466 33.4374 24.4375 32.1652 24.4375Z" fill="#20C8B4"/>
</svg>
