<svg width="56" height="56" viewBox="0 0 56 56" fill="none" xmlns="http://www.w3.org/2000/svg">
<path d="M35.5 20.5C37.4891 20.5 39.3968 19.7098 40.8033 18.3033C42.2098 16.8968 43 14.9891 43 13C43 11.0109 42.2098 9.10322 40.8033 7.6967C39.3968 6.29018 37.4891 5.5 35.5 5.5H20.5C18.5109 5.5 16.6032 6.29018 15.1967 7.6967C13.7902 9.10322 13 11.0109 13 13C13 14.9891 13.7902 16.8968 15.1967 18.3033C16.6032 19.7098 18.5109 20.5 20.5 20.5C18.5109 20.5 16.6032 21.2902 15.1967 22.6967C13.7902 24.1032 13 26.0109 13 28C13 29.9891 13.7902 31.8968 15.1967 33.3033C16.6032 34.7098 18.5109 35.5 20.5 35.5C19.0166 35.5 17.5666 35.9399 16.3332 36.764C15.0999 37.5881 14.1386 38.7594 13.5709 40.1299C13.0032 41.5003 12.8547 43.0083 13.1441 44.4632C13.4335 45.918 14.1478 47.2544 15.1967 48.3033C16.2456 49.3522 17.582 50.0665 19.0368 50.3559C20.4917 50.6453 21.9997 50.4968 23.3701 49.9291C24.7406 49.3614 25.9119 48.4002 26.736 47.1668C27.5601 45.9334 28 44.4834 28 43V20.5H35.5Z" fill="#20C8B4"/>
<path d="M35.5 35.5C39.6421 35.5 43 32.1421 43 28C43 23.8579 39.6421 20.5 35.5 20.5C31.3579 20.5 28 23.8579 28 28C28 32.1421 31.3579 35.5 35.5 35.5Z" fill="#20C8B4"/>
</svg>
