<svg width="56" height="56" viewBox="0 0 56 56" fill="none" xmlns="http://www.w3.org/2000/svg">
<path d="M12.7366 34.8794L17.185 6.37283C17.3387 5.40064 18.6428 5.17095 19.1031 6.04002L23.8844 14.9885L12.7366 34.8794ZM44.5 41.5L40.1181 15.551C40.0863 15.3655 40.0044 15.1922 39.8812 15.05C39.758 14.9077 39.5983 14.8019 39.4192 14.744C39.2402 14.686 39.0487 14.6782 38.8655 14.7213C38.6823 14.7644 38.5144 14.8568 38.38 14.9885L11.5 41.5L26.44 50.1166C26.8985 50.368 27.4129 50.4998 27.9358 50.4998C28.4587 50.4998 28.9731 50.368 29.4316 50.1166L44.5 41.5ZM32.3462 18.8997L28.9206 12.3803C28.8354 12.2129 28.7056 12.0722 28.5454 11.974C28.3852 11.8757 28.201 11.8237 28.0131 11.8237C27.8252 11.8237 27.641 11.8757 27.4808 11.974C27.3207 12.0722 27.1908 12.2129 27.1056 12.3803L12.0466 39.2256L32.3462 18.8997Z" fill="#20C8B4"/>
</svg>
