<svg width="56" height="56" viewBox="0 0 56 56" fill="none" xmlns="http://www.w3.org/2000/svg">
<path d="M28 7C16.4031 7 7 16.6469 7 28.5344C7 38.05 13.0187 46.1125 21.3625 48.9625C21.4795 48.9879 21.599 49.0005 21.7188 49C22.4969 49 22.7969 48.4281 22.7969 47.9312C22.7969 47.4156 22.7781 46.0656 22.7687 44.2656C22.0741 44.4285 21.3635 44.5134 20.65 44.5187C16.6094 44.5187 15.6906 41.3781 15.6906 41.3781C14.7344 38.8937 13.3563 38.2281 13.3563 38.2281C11.5281 36.9437 13.3469 36.9062 13.4875 36.9062H13.4969C15.6063 37.0937 16.7125 39.1375 16.7125 39.1375C17.7625 40.975 19.1687 41.4906 20.425 41.4906C21.2557 41.474 22.0735 41.2823 22.825 40.9281C23.0125 39.5406 23.5562 38.5937 24.1562 38.05C19.4969 37.5062 14.5938 35.6594 14.5938 27.4094C14.5938 25.0562 15.4094 23.1344 16.75 21.6344C16.5344 21.0906 15.8125 18.8969 16.9562 15.9344C17.1097 15.8977 17.2674 15.8819 17.425 15.8875C18.1844 15.8875 19.9 16.1781 22.7313 18.1469C26.1714 17.1844 29.8098 17.1844 33.25 18.1469C36.0812 16.1781 37.7969 15.8875 38.5563 15.8875C38.7139 15.8819 38.8716 15.8977 39.025 15.9344C40.1688 18.8969 39.4469 21.0906 39.2312 21.6344C40.5719 23.1437 41.3875 25.0656 41.3875 27.4094C41.3875 35.6781 36.475 37.4969 31.7969 38.0312C32.5469 38.6969 33.2219 40.0094 33.2219 42.0156C33.2219 44.8937 33.1937 47.2187 33.1937 47.9219C33.1937 48.4281 33.4844 49 34.2625 49C34.3885 49.0005 34.5141 48.988 34.6375 48.9625C42.9906 46.1125 49 38.0406 49 28.5344C49 16.6469 39.5969 7 28 7Z" fill="#20C8B4"/>
</svg>
