<svg width="56" height="56" viewBox="0 0 56 56" fill="none" xmlns="http://www.w3.org/2000/svg">
<path d="M36.7497 10.4997C39.0684 10.5066 41.2901 11.4308 42.9297 13.0703C44.5692 14.7099 45.4934 16.9316 45.5003 19.2503V36.7497C45.4934 39.0684 44.5692 41.2901 42.9297 42.9297C41.2901 44.5692 39.0684 45.4934 36.7497 45.5003H19.2503C16.9316 45.4934 14.7099 44.5692 13.0703 42.9297C11.4308 41.2901 10.5066 39.0684 10.4997 36.7497V19.2503C10.5066 16.9316 11.4308 14.7099 13.0703 13.0703C14.7099 11.4308 16.9316 10.5066 19.2503 10.4997H36.7497ZM36.7497 7H19.2503C12.5125 7 7 12.5125 7 19.2503V36.7497C7 43.4875 12.5125 49 19.2503 49H36.7497C43.4875 49 49 43.4875 49 36.7497V19.2503C49 12.5125 43.4875 7 36.7497 7Z" fill="#20C8B4"/>
<path d="M39.3747 19.2502C38.8555 19.2502 38.348 19.0963 37.9163 18.8079C37.4846 18.5194 37.1482 18.1094 36.9495 17.6298C36.7508 17.1501 36.6988 16.6223 36.8001 16.1131C36.9014 15.6039 37.1514 15.1362 37.5185 14.7691C37.8856 14.402 38.3534 14.152 38.8626 14.0507C39.3718 13.9494 39.8996 14.0014 40.3792 14.2001C40.8589 14.3987 41.2689 14.7352 41.5573 15.1669C41.8457 15.5986 41.9997 16.1061 41.9997 16.6252C42.0004 16.9702 41.933 17.3119 41.8014 17.6307C41.6697 17.9495 41.4764 18.2392 41.2325 18.4831C40.9886 18.727 40.6989 18.9203 40.3801 19.0519C40.0613 19.1836 39.7196 19.251 39.3747 19.2502ZM28 20.9996C29.3845 20.9996 30.738 21.4102 31.8892 22.1794C33.0404 22.9486 33.9376 24.0419 34.4674 25.321C34.9973 26.6002 35.1359 28.0077 34.8658 29.3656C34.5957 30.7236 33.929 31.9709 32.95 32.9499C31.971 33.9289 30.7236 34.5956 29.3657 34.8657C28.0078 35.1358 26.6002 34.9972 25.3211 34.4674C24.042 33.9375 22.9487 33.0403 22.1795 31.8891C21.4103 30.7379 20.9997 29.3845 20.9997 27.9999C21.0017 26.1439 21.7398 24.3645 23.0522 23.0522C24.3646 21.7398 26.144 21.0016 28 20.9996ZM28 17.4999C25.9233 17.4999 23.8932 18.1157 22.1665 19.2695C20.4398 20.4233 19.094 22.0631 18.2993 23.9818C17.5045 25.9004 17.2966 28.0116 17.7018 30.0484C18.1069 32.0852 19.1069 33.9561 20.5754 35.4246C22.0438 36.893 23.9148 37.893 25.9516 38.2982C27.9884 38.7033 30.0996 38.4954 32.0182 37.7007C33.9368 36.9059 35.5767 35.5601 36.7304 33.8334C37.8842 32.1067 38.5 30.0766 38.5 27.9999C38.5 25.2152 37.3938 22.5444 35.4246 20.5753C33.4555 18.6062 30.7848 17.4999 28 17.4999Z" fill="#20C8B4"/>
</svg>
