<svg width="56" height="56" viewBox="0 0 56 56" fill="none" xmlns="http://www.w3.org/2000/svg">
<path d="M28.0001 18.4282C26.107 18.4282 24.2563 18.9896 22.6823 20.0414C21.1082 21.0931 19.8813 22.5881 19.1568 24.3371C18.4324 26.0861 18.2428 28.0107 18.6121 29.8675C18.9815 31.7242 19.8931 33.4298 21.2318 34.7684C22.5704 36.1071 24.276 37.0187 26.1327 37.3881C27.9895 37.7574 29.9141 37.5678 31.6631 36.8434C33.4121 36.1189 34.9071 34.892 35.9588 33.3179C37.0106 31.7439 37.572 29.8932 37.572 28.0001C37.5688 25.4625 36.5593 23.0297 34.7649 21.2353C32.9705 19.4409 30.5377 18.4314 28.0001 18.4282Z" fill="#20C8B4"/>
<path d="M41.7428 19.2784C44.1515 19.2784 46.1041 17.3258 46.1041 14.9172C46.1041 12.5085 44.1515 10.5559 41.7428 10.5559C39.3342 10.5559 37.3816 12.5085 37.3816 14.9172C37.3816 17.3258 39.3342 19.2784 41.7428 19.2784Z" fill="#20C8B4"/>
<path d="M47.1119 19.3L46.9291 18.8988L46.6375 19.2288C45.9232 20.04 45.0195 20.6621 44.0069 21.04L43.7256 21.1432L43.84 21.4179C44.7116 23.5027 45.1591 25.7403 45.1562 28C45.1562 37.4613 37.4594 45.1563 28 45.1563C18.5406 45.1563 10.8437 37.4613 10.8437 28C10.8437 18.5388 18.5387 10.8438 28 10.8438C30.5444 10.8385 33.0573 11.4056 35.3528 12.5032L35.6219 12.625L35.7391 12.3513C36.1664 11.3589 36.8317 10.4869 37.6759 9.81254L38.02 9.53786L37.6291 9.34379C34.6554 7.79726 31.3518 6.99313 28 7.00004C16.4209 7.00004 7 16.421 7 28C7 39.5791 16.4209 49 28 49C39.5791 49 49 39.5791 49 28C49.0049 24.9979 48.3608 22.0301 47.1119 19.3Z" fill="#20C8B4"/>
</svg>
