<svg width="56" height="56" viewBox="0 0 56 56" fill="none" xmlns="http://www.w3.org/2000/svg">
<path d="M28 7C16.3994 7 7 16.3994 7 28C7 39.6006 16.3994 49 28 49C39.6006 49 49 39.6006 49 28C49 16.3994 39.6006 7 28 7ZM20.0312 37.1772C19.9024 37.397 19.7179 37.579 19.4964 37.7049C19.2749 37.8308 19.0242 37.8961 18.7694 37.8944C18.5097 37.8966 18.2545 37.8265 18.0325 37.6919C17.8672 37.5961 17.7224 37.4686 17.6065 37.3167C17.4906 37.1648 17.4058 36.9915 17.357 36.8067C17.3082 36.622 17.2964 36.4294 17.3222 36.2401C17.3481 36.0507 17.411 35.8684 17.5075 35.7034L18.9409 33.3203C19.0134 33.1973 19.1167 33.0954 19.2407 33.0247C19.3647 32.954 19.5051 32.9169 19.6478 32.9172H19.8597C20.8994 32.9172 21.6269 33.5425 21.8387 34.1481L20.0312 37.1772ZM32.1672 32.4897L22.78 32.5H16.5409C16.3446 32.5008 16.1502 32.4618 15.9695 32.3852C15.7887 32.3086 15.6254 32.1962 15.4894 32.0546C15.3535 31.913 15.2477 31.7453 15.1785 31.5616C15.1093 31.3779 15.0781 31.182 15.0869 30.9859C15.1169 30.1984 15.8041 29.6022 16.5869 29.6022H21.1094L26.4709 20.4756L24.7347 17.5178C24.3438 16.8438 24.5172 15.955 25.1875 15.5312C25.3528 15.4244 25.5379 15.352 25.7318 15.3185C25.9258 15.2851 26.1245 15.2911 26.316 15.3364C26.5075 15.3817 26.6879 15.4652 26.8463 15.582C27.0047 15.6988 27.1379 15.8464 27.2378 16.0159L28.1659 17.6012H28.1763L29.1053 16.0159C29.2053 15.8473 29.3383 15.7004 29.4963 15.5843C29.6542 15.4681 29.834 15.3849 30.0248 15.3396C30.2156 15.2944 30.4136 15.2881 30.6069 15.321C30.8002 15.3539 30.9849 15.4254 31.15 15.5312C31.8166 15.955 31.9881 16.8438 31.5944 17.5206L29.8581 20.4784L28.1706 23.3556L24.5059 29.605V29.6153H29.9069C30.5837 29.6153 31.4322 29.9791 31.7753 30.5641L31.8053 30.625C32.1081 31.1397 32.2797 31.4931 32.2797 32.0078C32.2747 32.1749 32.2375 32.3395 32.17 32.4925L32.1672 32.4897ZM39.4563 32.5H36.9147V32.5103L38.7728 35.6706C38.9726 36.0035 39.0338 36.4015 38.9432 36.7789C38.8525 37.1564 38.6173 37.4833 38.2881 37.6891C38.0599 37.8282 37.7979 37.9018 37.5306 37.9019C37.2765 37.9018 37.0268 37.8359 36.8057 37.7107C36.5846 37.5856 36.3996 37.4053 36.2688 37.1875L33.5228 32.5131L31.8166 29.6069L29.6153 25.8438C29.2965 25.3064 29.1232 24.6953 29.1125 24.0706C29.1018 23.4459 29.2541 22.8292 29.5544 22.2812C29.9894 21.5134 30.3222 21.3119 30.3222 21.3119L35.2188 29.5938H39.4291C40.2166 29.5938 40.8925 30.1994 40.9291 30.9766C40.9366 31.1742 40.9042 31.3712 40.8337 31.556C40.7632 31.7407 40.6561 31.9093 40.5188 32.0516C40.3815 32.1939 40.2168 32.307 40.0347 32.384C39.8526 32.4611 39.6568 32.5005 39.4591 32.5H39.4563Z" fill="#20C8B4"/>
</svg>
