<svg width="56" height="56" viewBox="0 0 56 56" fill="none" xmlns="http://www.w3.org/2000/svg">
<path d="M7 7V49H49V7H7ZM29.5 39.625C29.5 43.7134 27.085 45.7066 23.5891 45.7066C20.4316 45.7066 18.5988 44.0716 17.6688 42.0981L20.8825 40.1528C21.5022 41.2525 21.9728 42.1825 23.3256 42.1825C24.4506 42.1825 25.375 41.6753 25.375 39.7019V26.5H29.5V39.625ZM38.8141 45.6128C35.1494 45.6128 32.7813 43.9591 31.6253 41.6753L34.8438 39.8125C35.6875 41.1944 36.7891 42.115 38.7344 42.115C40.3694 42.115 41.3191 41.3913 41.3191 40.2634C41.3191 38.9106 40.3413 38.4316 38.5366 37.6384L37.5503 37.2147C34.7022 36.0034 32.8141 34.4809 32.8141 31.2663C32.8141 28.3066 35.0687 26.1447 38.5928 26.1447C41.1025 26.1447 42.9053 26.9247 44.2038 29.2084L41.125 31.1875C40.4481 29.9753 39.7188 29.5 38.5881 29.5C37.4322 29.5 36.6991 30.2331 36.6991 31.1875C36.6991 32.3716 37.4322 32.8506 39.1234 33.5837L40.1097 34.0066C43.465 35.4447 45.3541 36.9128 45.3541 40.2091C45.355 43.7622 42.5641 45.6128 38.8141 45.6128Z" fill="#20C8B4"/>
</svg>
