<svg width="56" height="56" viewBox="0 0 56 56" fill="none" xmlns="http://www.w3.org/2000/svg">
<path d="M28.0001 8.1499C24.1809 12.0171 24.1569 18.288 28.0001 22.1312L33.8688 27.9999L30.2626 31.6062C33.0418 34.387 34.2907 38.1609 34.0251 41.8249L40.8595 34.9905L46.7407 29.1093C47.3551 28.4965 47.3535 27.5033 46.7407 26.8905L34.9907 15.1405L28.0001 8.1499ZM21.9751 14.1749L15.1407 21.0093L14.9438 21.2093L9.26258 26.8874C8.64978 27.5018 8.64978 28.4949 9.26258 29.1093L26.347 46.1937L28.0001 47.8499C31.8193 43.9827 31.8433 37.7119 28.0001 33.8687L22.1313 27.9999L25.7376 24.3937C22.9584 21.6129 21.7095 17.8389 21.9751 14.1749Z" fill="#20C8B4"/>
</svg>
