<svg width="56" height="56" viewBox="0 0 56 56" fill="none" xmlns="http://www.w3.org/2000/svg">
<path d="M45.6409 7H10.5887C8.67344 7 7 8.37812 7 10.2709V45.4009C7 47.3041 8.67344 49 10.5887 49H45.6306C47.5563 49 49 47.2928 49 45.4009V10.2709C49.0112 8.37812 47.5563 7 45.6409 7ZM20.0191 42.0091H14.0022V23.3013H20.0191V42.0091ZM17.2188 20.4569H17.1756C15.25 20.4569 14.0031 19.0234 14.0031 17.2291C14.0031 15.4019 15.2828 14.0022 17.2516 14.0022C19.2203 14.0022 20.425 15.3916 20.4681 17.2291C20.4672 19.0234 19.2203 20.4569 17.2188 20.4569ZM42.0091 42.0091H35.9922V31.78C35.9922 29.3294 35.1166 27.655 32.9397 27.655C31.2766 27.655 30.2922 28.78 29.8544 29.8759C29.6903 30.2697 29.6462 30.8059 29.6462 31.3534V42.0091H23.6294V23.3013H29.6462V25.9047C30.5219 24.6578 31.8897 22.8634 35.0725 22.8634C39.0222 22.8634 42.01 25.4669 42.01 31.0797L42.0091 42.0091Z" fill="#20C8B4"/>
</svg>
