<svg width="57" height="57" viewBox="0 0 57 57" fill="none" xmlns="http://www.w3.org/2000/svg">
<path fill-rule="evenodd" clip-rule="evenodd" d="M7.92274 4H48.3796C50.5461 4 52.3023 5.75729 52.3023 7.92502V48.5321C52.3023 50.6998 50.5461 52.4571 48.3796 52.4571H7.92274C5.75627 52.4571 4 50.6998 4 48.5321V7.92502C4 5.75729 5.75627 4 7.92274 4ZM42.8503 16.2948C43.0458 14.9677 42.1313 13.7322 40.8064 13.5358C35.8019 12.7939 31.0612 17.2531 26.004 26.9136C22.0325 34.4999 18.4608 38.3125 16.0291 38.1322C14.6931 38.0332 13.5308 39.0387 13.4323 40.3769C13.3337 41.7148 14.3357 42.8804 15.6715 42.9794C20.5957 43.3443 25.273 38.7708 30.298 29.1718C34.2343 21.6527 37.7501 17.9959 40.097 18.3438C41.4223 18.5403 42.6547 17.6223 42.8503 16.2948Z" fill="#20C8B4"/>
</svg>
