<svg width="56" height="56" viewBox="0 0 56 56" fill="none" xmlns="http://www.w3.org/2000/svg">
<g clip-path="url(#clip0_291_3540)">
<path d="M26.4299 4.03756C26.3268 4.04694 25.9987 4.07975 25.7034 4.10318C18.8932 4.71718 12.5141 8.39183 8.47388 14.0397C6.2241 17.18 4.78518 20.7422 4.24148 24.5153C4.04931 25.8323 4.02588 26.2213 4.02588 28.0071C4.02588 29.7929 4.04931 30.1819 4.24148 31.4989C5.54448 40.5028 11.9517 48.0676 20.6414 50.8705C22.1975 51.372 23.838 51.7142 25.7034 51.9204C26.4299 52.0001 29.5703 52.0001 30.2968 51.9204C33.5167 51.5642 36.2446 50.7674 38.935 49.3941C39.3474 49.1832 39.4271 49.1269 39.3709 49.08C39.3334 49.0519 37.5757 46.6943 35.4666 43.8446L31.6326 38.6654L26.8283 31.5552C24.1848 27.6462 22.0101 24.4496 21.9913 24.4496C21.9726 24.4449 21.9538 27.604 21.9444 31.4615C21.9304 38.2155 21.9257 38.4873 21.8413 38.6467C21.7195 38.8764 21.6257 38.9701 21.4289 39.0732C21.2789 39.1482 21.1476 39.1623 20.4399 39.1623H19.629L19.4134 39.0263C19.2728 38.9373 19.1697 38.8201 19.0994 38.6842L19.001 38.4733L19.0104 29.0757L19.0244 19.6735L19.1697 19.4907C19.2447 19.3923 19.4041 19.2658 19.5166 19.2048C19.7087 19.1111 19.7837 19.1017 20.5946 19.1017C21.5507 19.1017 21.7101 19.1392 21.9585 19.4111C22.0288 19.4861 24.6301 23.4044 27.7423 28.1243C30.8545 32.8441 35.1103 39.2888 37.2008 42.4526L40.9973 48.2036L41.1894 48.077C42.8908 46.9709 44.6907 45.396 46.1155 43.7556C49.148 40.2731 51.1025 36.0266 51.7587 31.4989C51.9509 30.1819 51.9743 29.7929 51.9743 28.0071C51.9743 26.2213 51.9509 25.8323 51.7587 24.5153C50.4557 15.5114 44.0485 7.94656 35.3588 5.14371C33.8261 4.64688 32.195 4.30472 30.3671 4.09849C29.9171 4.05162 26.819 4.00007 26.4299 4.03756ZM36.2446 18.5393C36.4696 18.6518 36.6524 18.8674 36.718 19.0923C36.7555 19.2142 36.7649 21.8202 36.7555 27.6931L36.7414 36.1204L35.2556 33.8425L33.7652 31.5646V25.4386C33.7652 21.478 33.7839 19.2517 33.812 19.1439C33.887 18.8814 34.0511 18.6752 34.2761 18.5533C34.4682 18.4549 34.5385 18.4455 35.2744 18.4455C35.9681 18.4455 36.0899 18.4549 36.2446 18.5393Z" fill="#20C8B4"/>
<path d="M40.7629 48.3067C40.5989 48.4098 40.5473 48.4801 40.6926 48.4004C40.7957 48.3395 40.9645 48.2129 40.9363 48.2083C40.9223 48.2083 40.8426 48.2551 40.7629 48.3067ZM40.4395 48.5176C40.3551 48.5832 40.3551 48.5879 40.4582 48.5363C40.5145 48.5082 40.5614 48.4754 40.5614 48.466C40.5614 48.4285 40.5379 48.4379 40.4395 48.5176ZM40.2052 48.6582C40.1208 48.7238 40.1208 48.7285 40.2239 48.677C40.2801 48.6488 40.327 48.616 40.327 48.6067C40.327 48.5692 40.3036 48.5785 40.2052 48.6582ZM39.9708 48.7988C39.8864 48.8644 39.8864 48.8691 39.9895 48.8176C40.0458 48.7894 40.0927 48.7566 40.0927 48.7473C40.0927 48.7098 40.0692 48.7191 39.9708 48.7988ZM39.6146 48.9863C39.4365 49.08 39.4458 49.1175 39.624 49.0285C39.7036 48.9863 39.7646 48.9441 39.7646 48.9347C39.7646 48.9019 39.7599 48.9066 39.6146 48.9863Z" fill="#20C8B4"/>
</g>
<defs>
<clipPath id="clip0_291_3540">
<rect width="48" height="48" fill="white" transform="translate(4 4)"/>
</clipPath>
</defs>
</svg>
