<svg width="56" height="56" viewBox="0 0 56 56" fill="none" xmlns="http://www.w3.org/2000/svg">
<path d="M44.2901 16.194L29.7185 7.45458C29.1951 7.15619 28.603 6.99927 28.0005 6.99927C27.398 6.99927 26.8059 7.15619 26.2825 7.45458L11.71 16.193C11.1849 16.5148 10.7516 16.9666 10.4521 17.5048C10.1525 18.043 9.99684 18.6493 10 19.2652V36.7186C9.9969 37.3349 10.1526 37.9416 10.4521 38.4802C10.7516 39.0188 11.1849 39.4712 11.71 39.7936L15.5313 42.0755L15.5529 42.0877C17.4822 43.0749 18.221 43.0749 19.0769 43.0749C22.09 43.0749 23.9622 41.1249 23.9622 37.9852V21.0624C23.964 20.8511 23.8819 20.6478 23.7339 20.497C23.5859 20.3462 23.3841 20.2602 23.1729 20.258H21.0747C20.8635 20.2602 20.6617 20.3462 20.5137 20.497C20.3657 20.6478 20.2836 20.8511 20.2854 21.0624V37.9852C20.293 38.2275 20.2379 38.4676 20.1254 38.6823C20.0128 38.897 19.8467 39.0789 19.6432 39.2105C19.09 39.548 18.2866 39.4768 17.38 39.0089L13.7182 36.8049C13.7042 36.7953 13.6927 36.7824 13.6849 36.7674C13.677 36.7524 13.673 36.7356 13.6732 36.7186V19.5118C13.6738 19.492 13.6791 19.4726 13.6887 19.4553C13.6984 19.4381 13.712 19.4233 13.7285 19.4124L27.9635 10.6936C27.9741 10.6884 27.9858 10.6856 27.9977 10.6856C28.0096 10.6856 28.0213 10.6884 28.0319 10.6936L42.2754 19.4124C42.2916 19.4242 42.3047 19.4397 42.3137 19.4577C42.3226 19.4756 42.3272 19.4955 42.3269 19.5155V36.7186C42.3273 36.7364 42.3237 36.754 42.3164 36.7703C42.3091 36.7865 42.2983 36.8009 42.2847 36.8124L28.0291 45.3108C28.0048 45.3193 27.9784 45.3193 27.9541 45.3108L24.3138 43.1489C24.2057 43.0783 24.0809 43.0375 23.9519 43.0308C23.823 43.024 23.6946 43.0515 23.5797 43.1105L23.5479 43.1293C22.5429 43.7246 22.2729 43.8793 21.341 44.2186C21.1891 44.274 20.8319 44.4061 20.801 44.7596C20.77 45.113 21.1094 45.3643 21.4113 45.5396L26.2769 48.5274C26.7953 48.8379 27.3882 49.0022 27.9925 49.0027H28.0469C28.6361 48.9935 29.2126 48.8295 29.7185 48.5274L44.2901 39.7965C44.815 39.473 45.2479 39.02 45.5474 38.4811C45.8468 37.9421 46.0027 37.3352 46 36.7186V19.2652C46.003 18.6495 45.8472 18.0434 45.5477 17.5054C45.2481 16.9674 44.815 16.5158 44.2901 16.194Z" fill="#20C8B4"/>
<path d="M32.8639 33.8172C29.3679 33.8172 28.6226 32.8403 28.4014 31.2634C28.3764 31.0757 28.2849 30.9031 28.1435 30.7772C28.0021 30.6512 27.8201 30.5802 27.6307 30.5772H25.7745C25.5653 30.5816 25.3663 30.6687 25.2212 30.8195C25.0761 30.9702 24.9966 31.1723 25.0001 31.3815C25.0001 32.7484 25.4801 37.21 32.8676 37.21C35.1532 37.21 37.0545 36.6756 38.3642 35.664C39.6739 34.6525 40.3751 33.1806 40.3751 31.4265C40.3751 27.9062 38.0782 26.9425 33.5548 26.3125C28.9564 25.6731 28.9564 25.3478 28.9564 24.6353C28.9564 24.1225 28.9564 22.9215 32.2807 22.9215C34.6461 22.9215 35.9126 23.2206 36.3176 24.7965C36.3535 24.9713 36.4479 25.1285 36.5854 25.2422C36.7228 25.3559 36.8949 25.4193 37.0732 25.4219H38.936C39.0458 25.4208 39.1541 25.3963 39.2537 25.3501C39.3533 25.3038 39.4419 25.2369 39.5135 25.1537C39.6568 24.9865 39.7282 24.7696 39.7123 24.55C39.4714 21.2172 37.0348 19.5269 32.2836 19.5269C27.9654 19.5269 25.3882 21.4722 25.3882 24.73C25.3882 28.3019 28.0592 29.3115 32.0717 29.7297C36.7592 30.2144 36.7592 30.9212 36.7592 31.5456C36.762 32.5187 36.3579 33.8172 32.8639 33.8172Z" fill="#20C8B4"/>
</svg>
