<svg width="56" height="56" viewBox="0 0 56 56" fill="none" xmlns="http://www.w3.org/2000/svg">
<path d="M33.4375 7.41052C31.6947 7.12364 29.1438 6.99145 27.4122 6.99989C25.7892 7.00177 24.1692 7.13912 22.5691 7.41052C18.281 8.16052 17.5 9.72614 17.5 12.6174V15.9999H28V17.4999H14.0894C10.1931 17.4999 7.03095 22.1565 7.00001 27.9174V27.9999C6.99866 29.0071 7.09695 30.012 7.29345 30.9999C8.16439 35.3386 10.8775 38.4999 14.0894 38.4999H16V33.4374C16 30.503 17.9538 27.8171 21.1563 27.2405L22.0816 27.1252H33.4375C33.9145 27.1271 34.3895 27.064 34.8494 26.9377C35.9009 26.6569 36.8297 26.0354 37.4903 25.1704C38.1508 24.3054 38.506 23.2458 38.5 22.1574V12.6174C38.5 9.90614 36.1863 7.86145 33.4375 7.41052ZM22.2747 13.8905C21.8964 13.8918 21.5263 13.7808 21.2113 13.5714C20.8962 13.3621 20.6504 13.0639 20.5051 12.7147C20.3597 12.3655 20.3214 11.9809 20.3948 11.6099C20.4683 11.2388 20.6503 10.898 20.9178 10.6305C21.1853 10.363 21.5261 10.181 21.8972 10.1075C22.2682 10.0341 22.6528 10.0724 23.002 10.2178C23.3512 10.3631 23.6494 10.6089 23.8587 10.924C24.0681 11.239 24.1791 11.6091 24.1778 11.9874C24.1779 12.2373 24.1288 12.4849 24.0332 12.7158C23.9376 12.9468 23.7974 13.1566 23.6207 13.3334C23.4439 13.5101 23.2341 13.6503 23.0031 13.7459C22.7722 13.8415 22.5247 13.8906 22.2747 13.8905Z" fill="#20C8B4"/>
<path d="M48.5575 24.3438C47.5544 20.3491 44.9566 17.5 41.9106 17.5H40.2503V21.9484C40.2503 25.6581 37.8128 28.3441 34.8372 28.8044C34.5366 28.851 34.2329 28.8745 33.9287 28.8747H22.57C22.0882 28.8742 21.6083 28.9357 21.1422 29.0575C19.0506 29.6069 17.5 31.3469 17.5 33.6034V43.1444C17.5 45.8631 20.2319 47.4569 22.9122 48.2359C26.1194 49.1688 29.6134 49.3375 33.4516 48.2359C36.0006 47.5075 38.5 46.0347 38.5 43.1444V40H28V38.5H41.9106C44.6706 38.5 47.0622 36.1628 48.2341 32.7522C48.7487 31.221 49.0075 29.6154 49 28C49.0026 26.7677 48.854 25.5398 48.5575 24.3438ZM33.6728 41.875C34.0511 41.8737 34.4212 41.9848 34.7362 42.1941C35.0513 42.4034 35.2971 42.7016 35.4424 43.0508C35.5878 43.4001 35.6262 43.7846 35.5527 44.1556C35.4792 44.5267 35.2972 44.8676 35.0297 45.135C34.7622 45.4025 34.4214 45.5845 34.0503 45.658C33.6793 45.7315 33.2947 45.6931 32.9455 45.5477C32.5963 45.4024 32.2981 45.1566 32.0888 44.8416C31.8795 44.5265 31.7684 44.1564 31.7697 43.7781C31.7696 43.5282 31.8187 43.2806 31.9143 43.0497C32.0099 42.8187 32.1501 42.6089 32.3268 42.4321C32.5036 42.2554 32.7134 42.1152 32.9444 42.0196C33.1753 41.924 33.4229 41.8749 33.6728 41.875Z" fill="#20C8B4"/>
</svg>
