<svg width="56" height="56" viewBox="0 0 56 56" fill="none" xmlns="http://www.w3.org/2000/svg">
<path d="M42.4994 20.9426C42.02 20.7789 41.5372 20.6264 41.0509 20.4851C41.1316 20.157 41.2059 19.827 41.2741 19.4951C42.3709 14.1607 41.6538 9.86323 39.2059 8.44855C36.8622 7.09105 33.0184 8.50573 29.1409 11.8882C28.7597 12.222 28.3863 12.5657 28.0206 12.9195C27.7769 12.6845 27.5269 12.4545 27.2706 12.2295C23.2066 8.61261 19.1331 7.08917 16.6881 8.50855C14.3444 9.86886 13.6478 13.9085 14.635 18.9645C14.7338 19.4645 14.8447 19.9623 14.9678 20.4579C14.4075 20.6168 13.852 20.7918 13.3019 20.9829C8.54313 22.647 5.5 25.256 5.5 27.9617C5.5 30.7573 8.76625 33.5604 13.7284 35.2601C14.1309 35.397 14.5372 35.5242 14.9472 35.6417C14.8141 36.1723 14.6963 36.7089 14.5938 37.2514C13.6563 42.2201 14.3875 46.1642 16.7266 47.516C19.1425 48.912 23.1953 47.4776 27.1459 44.0182C27.4584 43.7445 27.7709 43.4554 28.0834 43.151C28.4784 43.5329 28.8847 43.9035 29.3022 44.2629C33.1272 47.561 36.9044 48.8932 39.2397 47.5376C41.6538 46.137 42.4384 41.8995 41.4194 36.7442C41.3413 36.3504 41.2513 35.9485 41.1494 35.5385C41.4344 35.4542 41.7134 35.367 41.9866 35.277C47.1428 33.5642 50.5019 30.7948 50.5019 27.9645C50.5 25.2457 47.3594 22.6198 42.4994 20.9426ZM30.4056 13.3414C33.7272 10.4435 36.8322 9.2998 38.2478 10.1173C39.7544 10.9882 40.3403 14.5001 39.3934 19.106C39.3309 19.406 39.2634 19.7051 39.1909 20.0032C37.2087 19.5524 35.1986 19.2342 33.1741 19.0507C32.0149 17.3809 30.7442 15.7914 29.3706 14.2929C29.7069 13.9667 30.0513 13.6495 30.4038 13.3414H30.4056ZM18.7872 30.2735C19.1941 31.061 19.6194 31.8389 20.0631 32.607C20.515 33.3907 20.9859 34.1629 21.4759 34.9235C20.0829 34.7721 18.6985 34.549 17.3284 34.2551C17.7259 32.9689 18.2153 31.6329 18.7872 30.2735ZM18.7872 25.7426C18.2247 24.4123 17.7484 23.1035 17.3575 21.8398C18.6419 21.552 20.0106 21.3167 21.4375 21.1385C20.9594 21.8848 20.4994 22.642 20.0575 23.4101C19.6156 24.1782 19.1913 24.9557 18.7844 25.7426H18.7872ZM19.8091 28.0085C20.4016 26.7729 21.0397 25.561 21.7234 24.3729C22.4066 23.1854 23.1338 22.0251 23.905 20.892C25.2438 20.7907 26.6163 20.7373 28.0028 20.7373C29.3894 20.7373 30.7703 20.7907 32.1081 20.8929C32.8713 22.0235 33.5941 23.1798 34.2766 24.3617C34.9591 25.5435 35.6056 26.7498 36.2163 27.9804C35.6138 29.2204 34.9688 30.4373 34.2813 31.631C33.5994 32.8185 32.8806 33.9823 32.125 35.1223C30.7891 35.216 29.4063 35.2676 28 35.2676C26.5938 35.2676 25.2372 35.2235 23.9256 35.1382C23.1488 34.0014 22.4156 32.836 21.7263 31.6423C21.0369 30.4485 20.3969 29.2373 19.8063 28.0085H19.8091ZM35.9453 32.5939C36.3984 31.8076 36.8334 31.011 37.2503 30.2042C37.8218 31.4999 38.3262 32.8241 38.7616 34.1717C37.3753 34.4838 35.9737 34.7232 34.5625 34.8889C35.0388 34.1332 35.4997 33.3682 35.9453 32.5939ZM37.2316 25.7435C36.8166 24.9529 36.385 24.1717 35.9369 23.3998C35.4994 22.6385 35.0434 21.8867 34.5691 21.1442C36.0044 21.326 37.3816 21.5679 38.6725 21.8632C38.2574 23.18 37.7765 24.475 37.2316 25.7435ZM28.0216 15.6701C28.9577 16.693 29.8416 17.7625 30.67 18.8745C28.8981 18.7901 27.125 18.7901 25.3506 18.8745C26.2253 17.7176 27.1206 16.6442 28.0216 15.6701ZM17.6556 10.1745C19.1613 9.30073 22.4903 10.5495 25.9994 13.6685C26.2234 13.8682 26.4494 14.0773 26.6744 14.2939C25.2938 15.7921 24.0141 17.3803 22.8438 19.0479C20.8237 19.2299 18.8176 19.5431 16.8381 19.9854C16.7238 19.5254 16.6206 19.0623 16.5288 18.596C15.6803 14.262 16.2419 10.9948 17.6556 10.1745ZM15.4609 33.7854C15.0859 33.6785 14.7156 33.5626 14.35 33.4376C12.1563 32.6876 10.3441 31.7089 9.1 30.6429C7.98625 29.6876 7.42188 28.7342 7.42188 27.9617C7.42188 26.3201 9.865 24.2257 13.9394 22.8054C14.4513 22.6273 14.9675 22.4645 15.4881 22.317C16.0932 24.2616 16.8261 26.1642 17.6819 28.0123C16.8159 29.8859 16.074 31.8145 15.4609 33.7854ZM25.8794 42.567C24.1328 44.097 22.3834 45.1817 20.8413 45.7282C19.4556 46.2185 18.3522 46.2326 17.6856 45.8473C16.2663 45.027 15.6756 41.8592 16.4809 37.6104C16.5766 37.1104 16.6859 36.6104 16.8091 36.1104C18.8083 36.5411 20.8346 36.8352 22.8738 36.9907C24.0555 38.6671 25.3458 40.2642 26.7363 41.772C26.4569 42.0467 26.1709 42.311 25.8794 42.567ZM28.075 40.3901C27.1637 39.4048 26.2544 38.3145 25.3675 37.1426C26.2294 37.1764 27.1069 37.1932 28 37.1932C28.9169 37.1932 29.8244 37.1735 30.7188 37.1332C29.8934 38.2631 29.011 39.3501 28.075 40.3901ZM39.7488 43.0704C39.4806 44.5179 38.9416 45.4835 38.275 45.8698C36.8566 46.6929 33.8238 45.6232 30.5538 42.8023C30.1788 42.4798 29.8038 42.1339 29.4222 41.771C30.7856 40.2574 32.0456 38.6538 33.1938 36.971C35.2442 36.7973 37.2803 36.4825 39.2875 36.0289C39.3794 36.4001 39.4606 36.7639 39.5313 37.1201C39.9822 39.3982 40.0469 41.4589 39.7488 43.0704ZM41.38 33.4479C41.1344 33.5295 40.8813 33.6082 40.6244 33.6851C39.995 31.7313 39.2336 29.8225 38.3453 27.972C39.2002 26.1461 39.9319 24.265 40.5353 22.3414C40.9956 22.4754 41.4428 22.616 41.8731 22.7651C46.0375 24.2014 48.5781 26.3276 48.5781 27.9617C48.5781 29.7054 45.8341 31.9685 41.38 33.4479Z" fill="#20C8B4"/>
<path d="M28.0001 31.989C28.7979 31.9916 29.5786 31.7574 30.2433 31.316C30.9079 30.8746 31.4267 30.2459 31.7338 29.5096C32.0409 28.7732 32.1226 27.9622 31.9686 27.1794C31.8145 26.3965 31.4316 25.677 30.8684 25.1119C30.3051 24.5468 29.5868 24.1616 28.8045 24.0049C28.0221 23.8483 27.2109 23.9274 26.4735 24.2321C25.7362 24.5368 25.1058 25.0535 24.6623 25.7167C24.2187 26.38 23.9819 27.1599 23.9819 27.9577C23.9808 28.4863 24.0839 29.01 24.2853 29.4987C24.4867 29.9875 24.7824 30.4317 25.1556 30.8061C25.5287 31.1805 25.972 31.4777 26.4601 31.6806C26.9482 31.8836 27.4715 31.9884 28.0001 31.989Z" fill="#20C8B4"/>
</svg>
