<svg width="56" height="56" viewBox="0 0 56 56" fill="none" xmlns="http://www.w3.org/2000/svg">
<g clip-path="url(#clip0_291_3417)">
<path d="M51.979 34.7566C51.8412 33.6391 51.2749 32.6697 50.2915 31.8719C50.2793 31.857 50.2658 31.8432 50.2512 31.8306L50.2015 31.795L50.1856 31.7838L49.6634 31.4088L49.6456 31.3956L49.579 31.3488C49.5546 31.3345 49.5284 31.3235 49.5012 31.316C47.8493 30.3325 45.1146 29.6435 40.9306 31.12C39.9321 29.44 39.8187 28.0938 40.4871 26.0313C40.6062 25.6722 40.4956 25.435 40.1393 25.2813C39.4231 24.9766 38.4424 25.1322 37.7468 25.316C37.4224 25.4003 37.2274 25.5841 37.1656 25.8625C36.7249 27.925 35.4443 29.8094 34.2059 31.6281L34.1328 31.735C33.3696 30.1169 33.5281 28.8635 34.0596 27.2931C34.1656 26.98 34.0821 26.7719 33.7887 26.6163C32.9693 26.1935 31.7402 26.4841 31.2509 26.6285C30.6303 26.8094 29.9646 28.4866 29.2212 30.4947C29.0337 31 28.8724 31.4322 28.7759 31.6338C28.5462 32.1025 28.3268 32.6369 28.0943 33.2041C27.5693 34.4875 26.9778 35.9322 26.1321 36.8397C25.8246 36.16 26.3084 35.0885 26.7781 34.0488C27.334 32.8197 27.859 31.6581 27.2543 30.9166C27.1587 30.7993 27.0401 30.7029 26.9058 30.6333C26.7714 30.5636 26.6243 30.5222 26.4734 30.5116C26.2765 30.4966 26.0788 30.5287 25.8968 30.6053C25.9596 30.0756 25.9624 29.6575 25.8077 29.1522C25.5865 28.4313 25.0118 28.0272 24.2206 28.0488C22.4187 28.1013 20.8943 29.4438 19.9315 30.5613C19.2902 31.3113 17.869 31.8831 16.6212 32.3847C16.1281 32.5938 15.6593 32.7813 15.2684 32.9688C14.6449 32.4419 13.8527 31.9103 13.0184 31.3488C10.6746 29.7756 8.01869 27.9916 7.92681 25.5728C7.79556 22 11.8643 19.466 15.4156 17.6575C18.1071 16.2888 20.4471 15.3813 22.5696 14.8853C25.5509 14.1888 28.069 14.3294 30.0527 15.3016C31.1384 15.8331 31.6465 16.9891 31.324 18.1778C30.4803 21.2669 26.9843 23.3838 23.9946 24.3363C22.1937 24.91 20.6609 25.15 19.3071 25.0713C17.6102 24.9728 16.2246 24.1216 15.6321 23.7588C15.5372 23.6939 15.4368 23.6375 15.3321 23.59L15.3049 23.5835C15.2513 23.5701 15.195 23.5718 15.1422 23.5883C15.0895 23.6049 15.0423 23.6356 15.0059 23.6772C14.884 23.8225 14.9271 24.0522 14.9712 24.1685C15.5478 25.675 16.7384 26.6266 18.5093 26.9969C19.0889 27.113 19.6789 27.1692 20.2699 27.1647C24.4146 27.1647 29.7031 24.775 31.6456 22.8072C32.9703 21.4666 33.9349 20.0885 34.3343 17.7119C34.7515 15.2228 33.064 13.4931 31.3446 12.6963C27.1662 10.7678 22.4206 11.53 19.1749 12.5088C15.3781 13.6535 11.4499 15.7347 8.39931 18.221C4.63806 21.2838 3.27869 24.1272 4.35681 26.6819C5.464 29.3003 8.164 30.9381 10.7749 32.5225C11.6187 33.0335 12.4212 33.52 13.144 34.0225C12.9265 34.1285 12.7043 34.2363 12.4784 34.3441C10.2865 35.4063 7.80025 36.6016 6.42119 38.5769C5.41994 40.016 5.23244 41.4485 5.86431 42.835C6.20181 43.5728 6.80181 44.0734 7.63525 44.3228C8.0688 44.4457 8.51779 44.5053 8.96838 44.5C10.5912 44.5 12.3771 43.8438 13.3493 43.2372C15.0668 42.1591 16.1796 40.7116 16.6578 38.935C17.0834 37.3544 16.9812 35.7841 16.3624 34.3825L18.4671 33.3213C17.4518 36.6963 18.2299 38.7119 19.0849 39.8238C19.3999 40.2335 19.9681 40.48 20.6028 40.4913C21.2374 40.5025 21.8215 40.2635 22.1515 39.8566C22.7759 39.0831 23.2371 38.1785 23.6618 37.2738C23.6393 37.8644 23.6674 38.4625 23.869 38.9697C24.0499 39.4263 24.3481 39.7291 24.7324 39.8453C25.1412 39.97 25.6202 39.865 26.0815 39.55C28.1599 38.1278 29.5812 34.7144 30.7231 31.9703C30.8853 31.5803 31.0409 31.2053 31.1918 30.8547C31.4743 31.8657 31.8673 32.8425 32.3637 33.7675C32.4743 33.9681 32.4649 34.0563 32.3149 34.2213C32.089 34.4688 31.774 34.7678 31.4403 35.0847C30.4296 36.0438 29.1715 37.2409 29.0028 38.2938C28.9371 38.7156 29.2278 39.1 29.6787 39.1872C31.0353 39.4572 32.6693 39.0625 34.0512 38.1325C35.3074 37.2888 35.7799 36.1122 35.4574 34.646C35.1453 33.2341 35.8578 31.481 37.5753 29.4316C37.8565 30.6063 38.2315 31.556 38.749 32.3875L38.7349 32.3988C37.4843 33.491 35.7706 34.9863 36.0368 36.8003C36.0592 36.9728 36.1172 37.1388 36.2073 37.2876C36.2973 37.4365 36.4175 37.5649 36.5599 37.6647C36.7122 37.7675 36.8841 37.8377 37.0648 37.871C37.2455 37.9042 37.4311 37.8997 37.6099 37.8578C39.2478 37.5138 40.4806 36.8209 41.3768 35.7419C42.2731 34.6628 41.9459 33.4666 41.644 32.5385C43.9878 31.9028 46.0746 31.9188 48.0284 32.5853C49.1253 32.9603 49.9118 33.5763 50.3656 34.4266C50.9365 35.4963 50.6281 36.4835 49.4946 37.2063C49.1468 37.4285 48.979 37.5644 48.9687 37.736C48.9664 37.7758 48.9737 37.8155 48.99 37.8519C49.0063 37.8883 49.0312 37.9202 49.0624 37.945C49.1937 38.0528 49.5987 38.2403 50.5146 37.6638C51.3584 37.1341 51.8534 36.4131 51.9799 35.5075C52.0054 35.2578 52.0051 35.0062 51.979 34.7566ZM14.5043 37.106L14.4949 37.226C14.3487 38.5985 13.6512 39.7947 12.4184 40.7885C11.644 41.4128 10.8031 41.7963 10.0512 41.8694C9.52619 41.92 9.14463 41.8488 8.91775 41.6566C8.74806 41.5131 8.65713 41.2985 8.6365 41.0003C8.48275 38.6116 12.229 36.2378 14.3374 35.4569C14.4879 35.9928 14.5444 36.5508 14.5043 37.106ZM24.0996 30.3691C23.7527 32.3463 22.7412 36.0785 21.1512 37.5269C21.0752 37.5963 21.0115 37.6206 20.9824 37.6141C20.9534 37.6075 20.9309 37.5728 20.9074 37.5203C20.3768 36.2903 20.5728 34.2128 21.3762 32.5806C21.994 31.3225 22.8762 30.4891 23.8624 30.2369C23.9034 30.2256 23.9456 30.2196 23.9881 30.2191C24.0213 30.2167 24.0543 30.2257 24.0818 30.2444C24.0934 30.2627 24.101 30.2833 24.1041 30.3048C24.1071 30.3263 24.1056 30.3482 24.0996 30.3691ZM31.9268 37.5766C31.6278 37.8888 31.2181 37.8466 31.3146 37.7322L32.8371 36.116C32.7143 36.6719 32.3515 37.1322 31.9268 37.5766ZM38.2428 36.1788C38.098 36.2501 37.9413 36.2943 37.7806 36.3091C37.7374 35.4588 38.5615 34.5016 39.3743 33.8631C39.5928 34.75 39.1456 35.6875 38.2428 36.1788Z" fill="#20C8B4"/>
</g>
<defs>
<clipPath id="clip0_291_3417">
<rect width="48" height="48" fill="white" transform="translate(4 4)"/>
</clipPath>
</defs>
</svg>
