<svg width="56" height="56" viewBox="0 0 56 56" fill="none" xmlns="http://www.w3.org/2000/svg">
<path d="M15.8238 33.5406C15.823 34.4131 15.5636 35.2657 15.0784 35.9907C14.5932 36.7157 13.9039 37.2806 13.0976 37.614C12.2914 37.9473 11.4044 38.0342 10.5489 37.8635C9.69329 37.6929 8.90752 37.2724 8.29089 36.6552C7.67425 36.0381 7.25443 35.2519 7.0845 34.3962C6.91457 33.5405 7.00216 32.6536 7.33619 31.8477C7.67023 31.0417 8.23571 30.3529 8.96116 29.8683C9.68661 29.3837 10.5394 29.125 11.4119 29.125H15.8238V33.5406ZM18.0475 33.5406C18.0475 32.3705 18.5123 31.2483 19.3397 30.421C20.1671 29.5936 21.2893 29.1288 22.4594 29.1287C23.6295 29.1287 24.7517 29.5936 25.579 30.421C26.4064 31.2483 26.8713 32.3705 26.8713 33.5406V44.5881C26.8713 45.7582 26.4064 46.8804 25.579 47.7078C24.7517 48.5352 23.6295 49 22.4594 49C21.2893 49 20.1671 48.5352 19.3397 47.7078C18.5123 46.8804 18.0475 45.7582 18.0475 44.5881V33.5406ZM22.4594 15.8238C21.5869 15.823 20.7343 15.5636 20.0093 15.0784C19.2843 14.5932 18.7194 13.9039 18.386 13.0976C18.0527 12.2914 17.9658 11.4044 18.1365 10.5489C18.3071 9.69329 18.7276 8.90752 19.3448 8.29089C19.9619 7.67425 20.7481 7.25443 21.6038 7.0845C22.4595 6.91457 23.3464 7.00216 24.1523 7.33619C24.9583 7.67023 25.6471 8.23571 26.1317 8.96116C26.6163 9.68661 26.875 10.5394 26.875 11.4119V15.8238H22.4594ZM22.4594 18.0475C23.6295 18.0475 24.7517 18.5123 25.579 19.3397C26.4064 20.1671 26.8713 21.2893 26.8713 22.4594C26.8713 23.6295 26.4064 24.7517 25.579 25.579C24.7517 26.4064 23.6295 26.8713 22.4594 26.8713H11.4119C10.2418 26.8713 9.1196 26.4064 8.29221 25.579C7.46482 24.7517 7 23.6295 7 22.4594C7 21.2893 7.46482 20.1671 8.29221 19.3397C9.1196 18.5123 10.2418 18.0475 11.4119 18.0475H22.4594ZM40.1763 22.4594C40.177 21.5869 40.4364 20.7343 40.9216 20.0093C41.4068 19.2843 42.0961 18.7194 42.9024 18.386C43.7086 18.0527 44.5956 17.9658 45.4511 18.1365C46.3067 18.3071 47.0925 18.7276 47.7091 19.3448C48.3258 19.9619 48.7456 20.7481 48.9155 21.6038C49.0854 22.4595 48.9978 23.3464 48.6638 24.1523C48.3298 24.9583 47.7643 25.6471 47.0388 26.1317C46.3134 26.6163 45.4606 26.875 44.5881 26.875H40.1763V22.4594ZM37.9525 22.4594C37.9525 23.6295 37.4877 24.7517 36.6603 25.579C35.8329 26.4064 34.7107 26.8713 33.5406 26.8713C32.3705 26.8713 31.2483 26.4064 30.421 25.579C29.5936 24.7517 29.1287 23.6295 29.1287 22.4594V11.4119C29.1287 10.2418 29.5936 9.1196 30.421 8.29221C31.2483 7.46482 32.3705 7 33.5406 7C34.7107 7 35.8329 7.46482 36.6603 8.29221C37.4877 9.1196 37.9525 10.2418 37.9525 11.4119V22.4594ZM33.5406 40.1763C34.4131 40.177 35.2657 40.4364 35.9907 40.9216C36.7157 41.4068 37.2806 42.0961 37.614 42.9024C37.9473 43.7086 38.0342 44.5956 37.8635 45.4511C37.6929 46.3067 37.2724 47.0925 36.6552 47.7091C36.0381 48.3258 35.2519 48.7456 34.3962 48.9155C33.5405 49.0854 32.6536 48.9978 31.8477 48.6638C31.0417 48.3298 30.3529 47.7643 29.8683 47.0388C29.3837 46.3134 29.125 45.4606 29.125 44.5881V40.1763H33.5406ZM33.5406 37.9525C32.3705 37.9525 31.2483 37.4877 30.421 36.6603C29.5936 35.8329 29.1287 34.7107 29.1287 33.5406C29.1287 32.3705 29.5936 31.2483 30.421 30.421C31.2483 29.5936 32.3705 29.1288 33.5406 29.1287H44.5881C45.7582 29.1287 46.8804 29.5936 47.7078 30.421C48.5352 31.2483 49 32.3705 49 33.5406C49 34.7107 48.5352 35.8329 47.7078 36.6603C46.8804 37.4877 45.7582 37.9525 44.5881 37.9525H33.5406Z" fill="#20C8B4"/>
</svg>
