<svg width="56" height="56" viewBox="0 0 56 56" fill="none" xmlns="http://www.w3.org/2000/svg">
<g clip-path="url(#clip0_291_3499)">
<path fill-rule="evenodd" clip-rule="evenodd" d="M37.3538 4.45929L37.1281 9.88744C37.1246 9.97089 37.1503 10.0529 37.2008 10.1195C37.3207 10.2775 37.546 10.3085 37.7041 10.1886L39.8127 8.5891L41.5936 9.99205C41.6603 10.0446 41.7435 10.0718 41.8284 10.0689C42.0267 10.0619 42.1818 9.8956 42.1749 9.69732L41.9819 4.17003L44.626 4.00477C45.9535 3.92181 47.0968 4.93064 47.1798 6.25806C47.1829 6.30807 47.1845 6.35817 47.1845 6.40827V49.4899C47.1845 50.82 46.1063 51.8981 44.7763 51.8981C44.7402 51.8981 44.7042 51.8973 44.6682 51.8957L12.5237 50.452C11.2718 50.3958 10.2723 49.3888 10.2253 48.1366L8.74147 8.60036C8.69247 7.29463 9.69365 6.18805 10.9978 6.10654L37.3538 4.45929ZM38.3801 21.8832C37.5329 22.5413 31.2219 22.9904 31.2219 22.0535C31.3553 18.4783 29.7547 18.3216 28.8654 18.3216C28.0207 18.3216 26.5979 18.577 26.5979 20.4922C26.5979 22.4439 28.6771 23.5458 31.1176 24.839C34.5844 26.6762 38.7802 28.8997 38.7802 34.4948C38.7802 39.8575 34.4231 42.8199 28.8654 42.8199C23.13 42.8199 18.1178 40.4994 18.6839 32.4544C18.9062 31.5097 26.1978 31.7342 26.1978 32.4544C26.1089 35.7742 26.8647 36.7506 28.7765 36.7506C30.2437 36.7506 30.9106 35.9419 30.9106 34.5799C30.9106 32.5188 28.7443 31.3025 26.2522 29.9033C22.8778 28.0088 18.9062 25.779 18.9062 20.6625C18.9062 15.5551 22.4186 12.1502 28.6876 12.1502C34.9566 12.1502 38.3801 15.503 38.3801 21.8832Z" fill="#20C8B4"/>
</g>
<defs>
<clipPath id="clip0_291_3499">
<rect width="48" height="48" fill="white" transform="translate(4 4)"/>
</clipPath>
</defs>
</svg>
