<svg width="56" height="56" viewBox="0 0 56 56" fill="none" xmlns="http://www.w3.org/2000/svg">
<path d="M28 13.6096C21.6024 13.6096 17.604 16.8076 16.0045 23.2028C18.4038 20.0049 21.2028 18.8061 24.4013 19.6053C26.2265 20.0613 27.5308 21.3855 28.975 22.8506C31.327 25.2374 34.0491 27.9997 39.9956 27.9997C46.3926 27.9997 50.3915 24.8018 51.9905 18.4059C49.5918 21.6039 46.7928 22.8032 43.5937 22.004C41.7691 21.5481 40.4648 20.2239 39.0206 18.7587C36.6686 16.372 33.9459 13.6096 28 13.6096ZM16.0045 27.9997C9.60741 27.9997 5.60849 31.1977 4.00952 37.5935C6.40827 34.3956 9.20721 33.1962 12.4063 33.996C14.2309 34.4526 15.5353 35.7762 16.9795 37.2407C19.3314 39.6275 22.0541 42.3904 28 42.3904C34.3977 42.3904 38.396 39.1925 39.9956 32.7966C37.5962 35.9946 34.7973 37.1939 31.5987 36.3941C29.7736 35.9388 28.4692 34.614 27.025 33.1494C24.6731 30.7627 21.9509 27.9997 16.0045 27.9997Z" fill="#20C8B4"/>
</svg>
