<svg width="56" height="56" viewBox="0 0 56 56" fill="none" xmlns="http://www.w3.org/2000/svg">
<path fill-rule="evenodd" clip-rule="evenodd" d="M45.9955 23.0476C45.4835 22.8299 45.0199 22.5175 44.6269 22.1245C44.2358 21.7314 43.9214 21.2658 43.7037 20.7559C43.2562 19.6856 43.2562 18.4822 43.7037 17.414C44.1411 16.382 44.9635 15.5616 45.9955 15.1222C47.0658 14.6747 48.2691 14.6747 49.3374 15.1222C50.3694 15.5596 51.1897 16.382 51.6291 17.414C52.0766 18.4843 52.0766 19.6876 51.6291 20.7559C51.1917 21.7879 50.3694 22.6082 49.3374 23.0476C48.2671 23.4951 47.0637 23.4951 45.9955 23.0476ZM43.3691 39.0537V26.1114H51.996V34.5931C52.0262 35.357 51.8105 36.1088 51.3812 36.7397C50.972 37.3081 50.4399 37.7798 49.8231 38.1144C49.1701 38.4691 48.4646 38.715 47.7329 38.844C47.0053 38.9811 46.2676 39.0496 45.5258 39.0537H43.3691ZM38.0479 20.3487C37.5198 20.5745 36.9514 20.6893 36.3789 20.6853C35.8065 20.6893 35.2401 20.5765 34.714 20.3487C34.5235 20.2672 34.3971 20.1742 34.2551 20.0697C34.1056 19.9598 33.9389 19.8371 33.6619 19.7017V13.0703C33.9381 12.9358 34.105 12.813 34.2549 12.7026C34.3969 12.598 34.5237 12.5047 34.714 12.4233C35.2381 12.1975 35.8025 12.0826 36.3729 12.0867C36.9473 12.0826 37.5157 12.1975 38.0438 12.4233C39.0758 12.8607 39.8962 13.683 40.3356 14.715C40.7851 15.7853 40.7851 16.9887 40.3376 18.0569C39.9002 19.0889 39.0799 19.9093 38.0479 20.3487ZM34.2088 42.6114C34.0621 42.5718 33.894 42.5264 33.6619 42.4762V23.4145H41.7506V38.3905C41.7788 39.1424 41.5913 39.8881 41.2084 40.5351C40.8617 41.0894 40.392 41.5571 39.8337 41.8997C39.2653 42.2444 38.6405 42.4883 37.9894 42.6193C37.3505 42.7564 36.6974 42.8249 36.0443 42.8289C35.6211 42.8269 35.1978 42.7967 34.7785 42.7362C34.5601 42.7063 34.4034 42.664 34.2088 42.6114ZM32.0433 51.4578L4 46.6042V8.85362L32.0433 4V51.4578ZM11.5508 19.3489L24.4931 18.5608V21.7959L19.6395 22.0115V36.1693L16.4044 35.9798V22.1385L11.5508 22.334V19.3489Z" fill="#20C8B4"/>
</svg>
