<svg width="56" height="56" viewBox="0 0 56 56" fill="none" xmlns="http://www.w3.org/2000/svg">
<path d="M50.5 14.2656C48.812 14.9991 47.026 15.4823 45.1984 15.7C47.1191 14.5754 48.5634 12.7887 49.2606 10.675C47.4448 11.7368 45.4615 12.4818 43.3956 12.8781C42.5257 11.9664 41.4795 11.2412 40.3206 10.7464C39.1616 10.2516 37.9142 9.99769 36.6541 10C31.5522 10 27.4234 14.0688 27.4234 19.0844C27.4198 19.782 27.4998 20.4776 27.6616 21.1563C24.0031 20.9848 20.4208 20.0515 17.1437 18.4162C13.8667 16.7809 10.967 14.4795 8.63031 11.6594C7.81054 13.0414 7.377 14.6182 7.375 16.225C7.375 19.375 9.01844 22.1594 11.5 23.7906C10.0297 23.7557 8.58962 23.3666 7.30188 22.6563V22.7688C7.30188 27.175 10.4894 30.8406 14.7081 31.675C13.9148 31.8865 13.0973 31.9937 12.2762 31.9938C11.6937 31.9948 11.1124 31.9383 10.5409 31.825C11.7137 35.4344 15.1272 38.0594 19.1706 38.1344C15.885 40.6665 11.8512 42.0351 7.70312 42.025C6.96683 42.0239 6.23122 41.9801 5.5 41.8938C9.71986 44.5883 14.6251 46.0136 19.6319 46C36.6344 46 45.9231 32.1531 45.9231 20.1438C45.9231 19.75 45.9128 19.3563 45.8941 18.9719C47.697 17.6894 49.2567 16.0957 50.5 14.2656Z" fill="#20C8B4"/>
</svg>
