<svg width="56" height="56" viewBox="0 0 56 56" fill="none" xmlns="http://www.w3.org/2000/svg">
<path fill-rule="evenodd" clip-rule="evenodd" d="M4 4V28V52H52V4H4ZM14.524 30.04V28.084L14.56 28.096V26.128L22.96 26.092C27.58 26.092 31.384 26.104 31.384 26.14C31.432 26.164 31.432 27.04 31.432 28.12V30.04H25.192V47.8H20.764V30.04H14.524ZM45.568 27.796C44.728 26.92 43.792 26.368 42.568 26.08L42.592 26.056C41.764 25.84 39.784 25.768 38.944 25.936C36.352 26.416 34.54 28.096 34.024 30.496C33.856 31.18 33.916 32.884 34.096 33.58C34.336 34.384 34.852 35.356 35.416 35.98C36.4 37.012 37.456 37.684 39.94 38.74C42.1 39.7 42.868 40.132 43.252 40.66C43.528 41.08 43.612 41.332 43.612 41.884C43.612 42.484 43.42 42.916 42.976 43.324C41.944 44.26 39.856 44.368 38.296 43.564C37.78 43.276 36.892 42.436 36.496 41.812L36.184 41.392L34.828 42.184L33.028 43.228L32.572 43.516C32.524 43.6 33.376 44.884 33.82 45.364C34.948 46.6 36.784 47.56 38.704 47.92C39.604 48.076 41.524 48.1 42.364 47.956C45.04 47.512 46.912 46.156 47.68 44.152C48.364 42.316 48.136 39.868 47.116 38.308C46.216 36.916 44.728 35.944 41.296 34.468C39.436 33.652 38.836 33.256 38.512 32.596C38.368 32.284 38.296 32.068 38.296 31.684C38.296 30.424 39.256 29.668 40.696 29.764C41.692 29.836 42.328 30.22 42.952 31.108C43.144 31.42 43.336 31.624 43.384 31.588C44.644 30.808 46.72 29.404 46.72 29.332C46.672 29.116 46.012 28.276 45.568 27.796Z" fill="#20C8B4"/>
</svg>
