<svg width="91" height="32" viewBox="0 0 91 32" fill="none" xmlns="http://www.w3.org/2000/svg">
<path d="M24.4579 22.154L20.5702 9.34206H14.5455L10.6939 22.1738L7.22853 9.34206H0L7.26643 31.3913H13.4571L17.5687 17.687L21.7253 31.3913H27.9034L35.0958 9.34206H27.8745L24.4579 22.154ZM54.6011 25.5425L65.4231 14.8295L65.4159 9.34025H45.4594L45.4666 15.2052L56.3049 15.189L45.4829 25.902L45.4865 31.3913H65.4484L65.4412 25.5263L54.6011 25.5425ZM40.0971 0.0487742C37.6461 0.0523868 35.9712 1.86227 35.9748 4.18695C35.9784 6.51163 37.6587 8.31609 40.1097 8.31248C42.5608 8.30887 44.2357 6.49717 44.2321 4.17431C44.2285 1.84963 42.5481 0.0451617 40.0971 0.0487742ZM40.0935 10.3319C38.803 10.3319 37.6298 9.97245 36.6606 9.34206V31.3913H43.5426V9.33122C42.5734 9.96522 41.3984 10.3283 40.1025 10.3301L40.0935 10.3319ZM70.8089 8.26371C73.2599 8.2601 74.9348 6.45021 74.9312 4.12554C74.9276 1.80086 73.2472 -0.00360713 70.7962 5.4147e-06C68.3452 0.00361796 66.6703 1.8135 66.6739 4.13818C66.6775 6.46285 68.3578 8.26732 70.8089 8.26371ZM91 9.26439L85.5114 9.2698L85.5023 1.35471H80.5606C80.5425 6.43937 76.8678 10.3915 71.4965 10.4005C69.9696 10.4023 68.5798 10.0862 67.3706 9.51546V31.3913H74.2526V15.198L78.6185 15.1908L78.6294 23.0589C78.642 30.9361 82.6001 32.0072 86.9878 32C87.966 31.9982 90.0813 31.7001 91 31.3172V25.4558C89.0598 25.8893 85.5168 26.48 85.5114 23.2215L85.4987 15.1257L90.9982 15.1185V9.26439H91V9.26439Z" fill="#E61996" fill-opacity="0.8"/>
<path d="M24.4579 22.154L20.5702 9.34206H14.5455L10.6939 22.1738L7.22853 9.34206H0L7.26643 31.3913H13.4571L17.5687 17.687L21.7253 31.3913H27.9034L35.0958 9.34206H27.8745L24.4579 22.154ZM54.6011 25.5425L65.4231 14.8295L65.4159 9.34025H45.4594L45.4666 15.2052L56.3049 15.189L45.4829 25.902L45.4865 31.3913H65.4484L65.4412 25.5263L54.6011 25.5425ZM40.0971 0.0487742C37.6461 0.0523868 35.9712 1.86227 35.9748 4.18695C35.9784 6.51163 37.6587 8.31609 40.1097 8.31248C42.5608 8.30887 44.2357 6.49717 44.2321 4.17431C44.2285 1.84963 42.5481 0.0451617 40.0971 0.0487742ZM40.0935 10.3319C38.803 10.3319 37.6298 9.97245 36.6606 9.34206V31.3913H43.5426V9.33122C42.5734 9.96522 41.3984 10.3283 40.1025 10.3301L40.0935 10.3319ZM70.8089 8.26371C73.2599 8.2601 74.9348 6.45021 74.9312 4.12554C74.9276 1.80086 73.2472 -0.00360713 70.7962 5.4147e-06C68.3452 0.00361796 66.6703 1.8135 66.6739 4.13818C66.6775 6.46285 68.3578 8.26732 70.8089 8.26371ZM91 9.26439L85.5114 9.2698L85.5023 1.35471H80.5606C80.5425 6.43937 76.8678 10.3915 71.4965 10.4005C69.9696 10.4023 68.5798 10.0862 67.3706 9.51546V31.3913H74.2526V15.198L78.6185 15.1908L78.6294 23.0589C78.642 30.9361 82.6001 32.0072 86.9878 32C87.966 31.9982 90.0813 31.7001 91 31.3172V25.4558C89.0598 25.8893 85.5168 26.48 85.5114 23.2215L85.4987 15.1257L90.9982 15.1185V9.26439H91V9.26439Z" fill="url(#paint0_linear_337_2997)" fill-opacity="0.2"/>
<defs>
<linearGradient id="paint0_linear_337_2997" x1="18" y1="-15.5" x2="83.5" y2="38.5" gradientUnits="userSpaceOnUse">
<stop stop-color="white"/>
<stop offset="1" stop-color="white" stop-opacity="0"/>
</linearGradient>
</defs>
</svg>
