<svg width="114" height="70" viewBox="0 0 114 70" fill="none" xmlns="http://www.w3.org/2000/svg">
<path d="M24.516 69.056C18.756 69.056 13.732 67.552 9.444 64.544C5.22 61.536 2.116 57.312 0.132 51.872L6.852 49.088C8.58 53.504 10.916 56.8 13.86 58.976C16.868 61.152 20.452 62.24 24.612 62.24C30.116 62.24 34.5 60.48 37.764 56.96C41.028 53.376 42.66 48.576 42.66 42.56V0.799995H50.052V42.656C50.052 48.032 48.996 52.704 46.884 56.672C44.836 60.64 41.892 63.712 38.052 65.888C34.276 68 29.764 69.056 24.516 69.056ZM81.9825 68V7.424H57.6945V0.799995H113.663V7.424H89.3745V68H81.9825Z" fill="#20C8B4"/>
</svg>
