<svg width="287" height="199" viewBox="0 0 287 199" fill="none" xmlns="http://www.w3.org/2000/svg">
<rect x="0.5" width="25" height="25" fill="#20C8B4"/>
<rect x="0.5" y="29" width="25" height="25" fill="#20C8B4"/>
<rect x="0.5" y="58" width="25" height="25" fill="#20C8B4"/>
<rect x="0.5" y="87" width="25" height="25" fill="#20C8B4"/>
<rect x="0.5" y="116" width="25" height="25" fill="#20C8B4"/>
<rect x="0.5" y="145" width="25" height="25" fill="#20C8B4"/>
<rect x="0.5" y="174" width="25" height="25" fill="#20C8B4"/>
<rect x="29.5" y="29" width="25" height="25" fill="#008D73"/>
<rect x="29.5" y="58" width="25" height="25" fill="#008D73"/>
<rect x="29.5" y="87" width="25" height="25" fill="#008D73"/>
<rect x="29.5" y="116" width="25" height="25" fill="#008D73"/>
<rect x="29.5" y="145" width="25" height="25" fill="#008D73"/>
<rect x="29.5" y="174" width="25" height="25" fill="#008D73"/>
<rect x="58.5" y="87" width="25" height="25" fill="#0B363E"/>
<rect x="58.5" y="116" width="25" height="25" fill="#0B363E"/>
<rect x="58.5" y="145" width="25" height="25" fill="#0B363E"/>
<rect x="87.5" y="87" width="25" height="25" fill="#0B363E"/>
<rect x="87.5" y="116" width="25" height="25" fill="#0B363E"/>
<rect x="87.5" y="145" width="25" height="25" fill="#0B363E"/>
<rect x="87.5" y="174" width="25" height="25" fill="#0B363E"/>
<rect x="116.5" y="87" width="25" height="25" fill="#0B363E"/>
<rect x="116.5" y="116" width="25" height="25" fill="#0B363E"/>
<rect x="116.5" y="145" width="25" height="25" fill="#0B363E"/>
<rect x="116.5" y="174" width="25" height="25" fill="#0B363E"/>
<rect x="145.5" y="87" width="25" height="25" fill="#0B363E"/>
<rect x="145.5" y="116" width="25" height="25" fill="#0B363E"/>
<rect x="145.5" y="145" width="25" height="25" fill="#0B363E"/>
<rect x="145.5" y="174" width="25" height="25" fill="#0B363E"/>
<rect x="174.5" y="29" width="25" height="25" fill="#008D73"/>
<rect x="174.5" y="58" width="25" height="25" fill="#008D73"/>
<rect x="174.5" y="87" width="25" height="25" fill="#0B363E"/>
<rect x="174.5" y="116" width="25" height="25" fill="#0B363E"/>
<rect x="174.5" y="145" width="25" height="25" fill="#0B363E"/>
<rect x="174.5" y="174" width="25" height="25" fill="#0B363E"/>
<rect x="203.5" y="29" width="25" height="25" fill="#20C8B4"/>
<rect x="203.5" y="58" width="25" height="25" fill="#008D73"/>
<rect x="203.5" y="87" width="25" height="25" fill="#008D73"/>
<rect x="203.5" y="116" width="25" height="25" fill="#008D73"/>
<rect x="203.5" y="145" width="25" height="25" fill="#008D73"/>
<rect x="203.5" y="174" width="25" height="25" fill="#0B363E"/>
<rect x="232.5" y="29" width="25" height="25" fill="#20C8B4"/>
<rect x="232.5" y="58" width="25" height="25" fill="#20C8B4"/>
<rect x="232.5" y="87" width="25" height="25" fill="#20C8B4"/>
<rect x="232.5" y="116" width="25" height="25" fill="#20C8B4"/>
<rect x="232.5" y="145" width="25" height="25" fill="#008D73"/>
<rect x="232.5" y="174" width="25" height="25" fill="#008D73"/>
<rect x="261.5" width="25" height="25" fill="#20C8B4"/>
<rect x="261.5" y="29" width="25" height="25" fill="#20C8B4"/>
<rect x="261.5" y="58" width="25" height="25" fill="#20C8B4"/>
<rect x="261.5" y="87" width="25" height="25" fill="#20C8B4"/>
<rect x="261.5" y="116" width="25" height="25" fill="#20C8B4"/>
<rect x="261.5" y="145" width="25" height="25" fill="#20C8B4"/>
<rect x="261.5" y="174" width="25" height="25" fill="#20C8B4"/>
</svg>
