<svg width="40" height="20" viewBox="0 0 40 20" fill="none" xmlns="http://www.w3.org/2000/svg">
    <path d="M15.5 19H9.5C7.11305 19 4.82387 18.0518 3.13604 16.364C1.44821 14.6761 0.5 12.3869 0.5 10C0.5 7.61305 1.44821 5.32387 3.13604 3.63604C4.82387 1.94821 7.11305 1 9.5 1H15.5M24.5 1H30.5C32.8869 1 35.1761 1.94821 36.864 3.63604C38.5518 5.32387 39.5 7.61305 39.5 10C39.5 12.3869 38.5518 14.6761 36.864 16.364C35.1761 18.0518 32.8869 19 30.5 19H24.5M11.3084 10H28.8791" stroke="#20C8B4" stroke-linecap="round" stroke-linejoin="round"/>
</svg>
