<svg width="41" height="35" viewBox="0 0 41 35" fill="none" xmlns="http://www.w3.org/2000/svg">
<path d="M20.5 9.25001C21.8929 3.8222 27.1535 1.05071 38.6071 1.00001C38.7902 0.999328 38.9717 1.03443 39.141 1.10329C39.3103 1.17215 39.4641 1.2734 39.5936 1.40122C39.723 1.52903 39.8256 1.68088 39.8954 1.84801C39.9651 2.01514 40.0007 2.19425 40 2.37501V27.125C40 27.4897 39.8532 27.8394 39.592 28.0973C39.3308 28.3551 38.9765 28.5 38.6071 28.5C27.4643 28.5 23.1595 30.718 20.5 34M20.5 9.25001C19.1071 3.8222 13.8465 1.05071 2.39287 1.00001C2.20976 0.999328 2.02833 1.03443 1.85903 1.10329C1.68973 1.17215 1.5359 1.2734 1.40643 1.40122C1.27695 1.52903 1.17438 1.68088 1.10463 1.84801C1.03488 2.01514 0.999319 2.19425 1.00001 2.37501V26.9591C1.00001 27.8082 1.53278 28.5 2.39287 28.5C13.5357 28.5 17.8562 30.7344 20.5 34M20.5 9.25001V34" stroke="#20C8B4" stroke-linecap="round" stroke-linejoin="round"/>
</svg>
